<svg width="19" height="19" viewBox="0 0 19 19" fill="none" xmlns="http://www.w3.org/2000/svg">
<path d="M9.42296 4.73486C8.95323 4.73486 8.49405 4.87415 8.10348 5.13512C7.71292 5.39609 7.40851 5.76702 7.22875 6.20099C7.04899 6.63496 7.00196 7.1125 7.0936 7.5732C7.18524 8.03391 7.41143 8.45709 7.74358 8.78924C8.07573 9.12139 8.49892 9.34759 8.95962 9.43923C9.42033 9.53087 9.89786 9.48384 10.3318 9.30408C10.7658 9.12432 11.1367 8.81991 11.3977 8.42934C11.6587 8.03878 11.798 7.57959 11.798 7.10986C11.7972 6.48019 11.5468 5.87652 11.1015 5.43128C10.6563 4.98603 10.0526 4.73558 9.42296 4.73486ZM9.42296 8.29736C9.1881 8.29736 8.95851 8.22772 8.76322 8.09723C8.56794 7.96675 8.41573 7.78129 8.32586 7.5643C8.23598 7.34731 8.21246 7.10855 8.25828 6.87819C8.3041 6.64784 8.4172 6.43625 8.58327 6.27017C8.74935 6.1041 8.96094 5.991 9.19129 5.94518C9.42164 5.89936 9.66041 5.92288 9.8774 6.01276C10.0944 6.10264 10.2798 6.25484 10.4103 6.45012C10.5408 6.64541 10.6105 6.875 10.6105 7.10986C10.6101 7.4247 10.4849 7.72653 10.2622 7.94915C10.0396 8.17177 9.7378 8.297 9.42296 8.29736Z" fill="#090840"/>
<path d="M13.9867 2.54263C12.8583 1.41452 11.3521 0.74438 9.75864 0.661542C8.1652 0.578704 6.59756 1.08904 5.35827 2.09406C4.11898 3.09908 3.29589 4.52754 3.04787 6.10374C2.79985 7.67993 3.14448 9.29213 4.01523 10.6292L8.50202 17.5172C8.60186 17.6704 8.73838 17.7964 8.8992 17.8835C9.06002 17.9707 9.24005 18.0163 9.42298 18.0163C9.6059 18.0163 9.78593 17.9707 9.94675 17.8835C10.1076 17.7964 10.2441 17.6704 10.3439 17.5172L14.8309 10.6292C15.6388 9.38887 15.9959 7.90853 15.8422 6.43628C15.6885 4.96402 15.0334 3.58933 13.9867 2.54263ZM13.8359 9.98099L9.423 16.7553L5.01006 9.98099C3.65928 7.90735 3.94899 5.13231 5.69892 3.38231C6.18797 2.89324 6.76856 2.5053 7.40754 2.24062C8.04651 1.97594 8.73137 1.83971 9.423 1.83971C10.1146 1.83971 10.7995 1.97594 11.4385 2.24062C12.0774 2.5053 12.658 2.89324 13.1471 3.38231C14.897 5.13231 15.1867 7.90735 13.8359 9.98099Z" fill="#090840"/>
</svg>
