<svg width="23" height="25" viewBox="0 0 23 25" fill="none" xmlns="http://www.w3.org/2000/svg">
<path d="M10.8947 0.00363823C8.94993 0.02786 4.7689 0.357588 2.43038 2.57114C0.690872 4.34949 0.0835223 6.97872 0.0123366 10.2299C-0.0467324 13.4694 -0.117918 19.5529 5.56558 21.2094V23.7323C5.56558 23.7323 5.52998 24.7418 6.17671 24.9489C6.97339 25.2091 7.42701 24.4324 8.1843 23.598L9.59666 21.9501C13.4854 22.2837 16.4638 21.5149 16.8069 21.4008C17.596 21.1406 22.0405 20.5546 22.7668 14.4703C23.5119 8.18668 22.404 4.2276 20.404 2.43675H20.3919C19.7883 1.86324 17.3627 0.0395802 11.9435 0.0192652C11.9435 0.0192652 11.5414 -0.00886331 10.8947 0.00285688V0.00363823ZM10.9613 1.77026C11.5134 1.76636 11.8489 1.79058 11.8489 1.79058C16.4358 1.80308 18.6251 3.22747 19.1416 3.70722C20.8258 5.19647 21.6937 8.76566 21.0583 14.0116C20.4547 19.0982 16.85 19.4201 16.1828 19.6397C15.8989 19.7334 13.2756 20.4007 9.97076 20.1811C9.97076 20.1811 7.50955 23.2456 6.74014 24.0347C6.61822 24.173 6.47585 24.2137 6.38497 24.1933C6.25472 24.1605 6.21534 23.9941 6.22291 23.7659L6.24639 19.5787C1.42621 18.2035 1.71019 13.0146 1.76169 10.3041C1.82076 7.59364 2.31375 5.37618 3.78139 3.87443C5.75717 2.03123 9.30737 1.78276 10.9598 1.77026H10.9613ZM11.3248 4.47997C11.2851 4.47956 11.2458 4.48725 11.209 4.50261C11.1722 4.51796 11.1388 4.54068 11.1105 4.56944C11.0823 4.5982 11.0599 4.63244 11.0445 4.67019C11.0292 4.70794 11.0212 4.74845 11.0211 4.78938C11.0211 4.96441 11.159 5.1027 11.3248 5.1027C12.0757 5.08797 12.8219 5.22676 13.5205 5.51106C14.2192 5.79536 14.8563 6.21955 15.3953 6.75916C16.4956 7.86164 17.0318 9.34307 17.0522 11.28C17.0522 11.4511 17.1863 11.5933 17.3559 11.5933V11.5808C17.4358 11.5811 17.5126 11.5487 17.5695 11.4907C17.6264 11.4327 17.6588 11.3539 17.6596 11.2714C17.6963 10.3597 17.553 9.44981 17.2384 8.59702C16.9237 7.74422 16.4443 6.96634 15.8292 6.31067C14.6304 5.10192 13.1113 4.47919 11.3248 4.47919V4.47997ZM7.3331 5.19647C7.11875 5.16415 6.90013 5.20855 6.71364 5.32226H6.69773C6.26476 5.58412 5.87472 5.91509 5.5421 6.30285C5.26569 6.63258 5.11574 6.96622 5.07636 7.28735C5.05289 7.47878 5.06879 7.67021 5.12407 7.85304L5.14376 7.86555C5.45501 8.80941 5.86168 9.71734 6.35847 10.5721C6.9984 11.773 7.78593 12.8836 8.70153 13.8764L8.7288 13.9171L8.77196 13.9499L8.79922 13.9827L8.83103 14.0108C9.79676 14.9583 10.8758 15.7746 12.042 16.44C13.3748 17.1886 14.1836 17.5425 14.669 17.6894V17.6972C14.8114 17.7418 14.9409 17.7621 15.0711 17.7621C15.4848 17.7308 15.8765 17.5575 16.1836 17.2698C16.5577 16.9266 16.8749 16.5225 17.1227 16.0736V16.0658C17.3551 15.6142 17.2764 15.1868 16.9409 14.8977C16.269 14.2917 15.5425 13.7535 14.7712 13.2904C14.2548 13.0013 13.73 13.1764 13.5172 13.4694L13.0635 14.0593C12.8311 14.3523 12.4085 14.3117 12.4085 14.3117L12.3964 14.3195C9.24527 13.4889 8.40467 10.1971 8.40467 10.1971C8.40467 10.1971 8.3653 9.74937 8.65685 9.52122L9.22482 9.04928C9.49669 8.82113 9.68602 8.28044 9.39446 7.74678C8.94872 6.94993 8.42823 6.20015 7.84049 5.50822C7.712 5.3451 7.53174 5.23412 7.33159 5.1949L7.3331 5.19647ZM11.8489 6.12471C11.4467 6.12471 11.4467 6.75135 11.8526 6.75135C12.3527 6.75971 12.8462 6.86967 13.305 7.07493C13.7638 7.28018 14.179 7.57672 14.5266 7.94759C14.8438 8.30858 15.0875 8.73158 15.2434 9.19152C15.3992 9.65147 15.464 10.139 15.4339 10.6253C15.4353 10.7076 15.4678 10.786 15.5246 10.8438C15.5813 10.9017 15.6578 10.9343 15.7376 10.9347L15.7497 10.9511C15.83 10.9505 15.9069 10.9173 15.9637 10.8586C16.0206 10.8 16.0528 10.7207 16.0533 10.6378C16.0806 9.3962 15.7065 8.35467 14.9727 7.52019C14.2351 6.68571 13.2059 6.21769 11.892 6.12471H11.8489ZM12.3464 7.80929C11.9322 7.79679 11.9162 8.43593 12.3267 8.44843C13.3248 8.50156 13.8095 9.02194 13.8731 10.0924C13.8745 10.1736 13.9066 10.2511 13.9627 10.3082C14.0187 10.3653 14.0942 10.3975 14.173 10.3979H14.1851C14.2256 10.3961 14.2653 10.386 14.302 10.3682C14.3387 10.3504 14.3715 10.3252 14.3987 10.2942C14.4258 10.2631 14.4467 10.2268 14.4601 10.1873C14.4735 10.1478 14.4791 10.106 14.4767 10.0643C14.4055 8.66877 13.6679 7.88274 12.3585 7.81007H12.3464V7.80929Z" fill="white"/>
</svg>
