<?xml version="1.0" standalone="no"?>
<!DOCTYPE svg PUBLIC "-//W3C//DTD SVG 20010904//EN"
 "http://www.w3.org/TR/2001/REC-SVG-20010904/DTD/svg10.dtd">
<svg version="1.0" xmlns="http://www.w3.org/2000/svg"
 width="256.000000pt" height="256.000000pt" viewBox="0 0 256.000000 256.000000"
 preserveAspectRatio="xMidYMid meet">
<metadata>
Created by potrace 1.11, written by Peter Selinger 2001-2013
</metadata>
<g transform="translate(0.000000,256.000000) scale(0.100000,-0.100000)"
fill="#000000" stroke="none">
<path d="M1130 2354 c-19 -3 -64 -14 -100 -26 -236 -75 -409 -244 -485 -473
-23 -66 -27 -98 -28 -195 -1 -121 5 -152 55 -290 88 -245 396 -799 608 -1093
45 -63 62 -60 122 28 57 83 218 336 265 418 18 31 49 85 69 120 128 220 245
472 291 627 90 305 -72 661 -368 810 -104 53 -175 71 -289 75 -58 2 -121 1
-140 -1z m291 -307 c196 -94 303 -308 255 -511 -50 -214 -228 -356 -446 -356
-280 0 -500 256 -451 525 26 143 123 274 249 336 90 44 112 48 222 46 86 -3
102 -6 171 -40z"/>
</g>
</svg>
